<?xml version="1.0" standalone="no"?>
<!DOCTYPE svg PUBLIC "-//W3C//DTD SVG 1.1//EN" "http://www.w3.org/Graphics/SVG/1.1/DTD/svg11.dtd" >
<svg xmlns="http://www.w3.org/2000/svg">
<metadata>
This is a custom SVG webfont generated by Font Squirrel.
Copyright   : 2002 Joerg Hemker published by FontShop International for the FontFont library
Foundry     : Joerg Hemker published by FontShop International for the FontFont library
</metadata>
<defs>
<font id="ZwoRegular-Plain" horiz-adv-x="1179" >
<font-face units-per-em="2048" ascent="1536" descent="-512" />
<missing-glyph horiz-adv-x="483" />
<glyph unicode=" "  horiz-adv-x="483" />
<glyph unicode="&#x09;" horiz-adv-x="483" />
<glyph unicode="&#xa0;" horiz-adv-x="483" />
<glyph unicode="!" horiz-adv-x="477" d="M113 100.5q0 53.5 35.5 89t91.5 35.5q53 0 89 -35.5t36 -89t-36 -89.5t-89 -36q-55 0 -91 36t-36 89.5zM143 1366h193l-10 -889h-174z" />
<glyph unicode="&#x22;" horiz-adv-x="819" d="M94 1366h193l-23 -635h-147zM532 1366h193l-23 -635h-147z" />
<glyph unicode="#" horiz-adv-x="1460" d="M168 348v152h258l33 313h-242v150h258l37 348h152l-37 -348h317l37 348h154l-37 -348h241v-150h-258l-32 -313h241v-152h-258l-37 -348h-151l37 348h-320l-37 -348h-151l37 348h-242zM578 500h317l35 313h-320z" />
<glyph unicode="$" d="M213 35l8 172q129 -72 279 -72q113 0 183.5 64.5t70.5 160.5q0 156 -201 244l-45 21q-139 59 -215 150t-76 253q0 141 84 236.5t225 119.5v175h125v-168q66 -2 124.5 -14.5t82.5 -22.5l25 -11l-9 -169q-102 57 -243 57q-96 0 -162 -51.5t-66 -149.5q0 -152 197 -237 l43 -21q143 -61 220 -156.5t77 -248.5q0 -135 -78 -235.5t-211 -139.5v-185h-125v166h-16q-186 1 -297 62z" />
<glyph unicode="%" horiz-adv-x="1599" d="M94 977q0 160 75 260t232.5 100t230.5 -99t73 -259t-75 -260.5t-232.5 -100.5t-230.5 99.5t-73 259.5zM246 944q0 -80 39 -136t112 -56q80 0 118 53t38 137v70q0 80 -40 136t-114 56q-80 0 -116.5 -53t-36.5 -137v-70zM338 0l737 1311h185l-738 -1311h-184zM893 332 q0 160 74.5 260t232.5 100t230.5 -99t72.5 -259t-74.5 -260.5t-232.5 -100.5t-230.5 99.5t-72.5 259.5zM1044 299q0 -80 40 -136.5t114 -56.5q80 0 117 53.5t37 137.5v70q0 82 -40 137t-114 55q-80 0 -117 -53t-37 -137v-70z" />
<glyph unicode="&#x26;" horiz-adv-x="1210" d="M96 332q0 129 73 218t200 175q-70 86 -104 151.5t-34 143.5q0 143 93.5 230t238.5 87q143 0 229.5 -77.5t86.5 -217.5q0 -55 -20.5 -102t-75 -96t-82 -69.5t-107.5 -74.5l274 -352q41 49 77 108.5t50 96.5l17 35l94 -152q-45 -119 -133 -217l186 -219h-213l-90 109 q-164 -135 -375 -136q-182 0 -283.5 98.5t-101.5 260.5zM272 342q0 -100 64.5 -158.5t161.5 -58.5q133 0 258 108l-297 379q-55 -41 -89 -70.5t-66 -85t-32 -114.5zM401 1022q0 -80 103 -211q139 90 174 131q37 45 37 92q0 72 -41 116t-113 44q-76 0 -118 -47t-42 -125z" />
<glyph unicode="'" horiz-adv-x="380" d="M94 1366h193l-23 -635h-147z" />
<glyph unicode="(" horiz-adv-x="825" d="M197 627q0 160 33.5 310t81.5 252.5t96.5 182.5t83.5 119l32 37h187q-12 -14 -34 -41t-77 -115t-97 -182t-77 -237.5t-35 -284.5v-80q0 -143 33 -284.5t80 -241t94 -178.5t80 -117l33 -39h-187q-14 14 -35.5 39.5t-78 113.5t-99.5 185.5t-78.5 250t-35.5 310.5z" />
<glyph unicode=")" horiz-adv-x="825" d="M115 -272q12 14 33.5 40.5t77 114.5t97.5 182.5t76.5 237.5t34.5 285v80q0 143 -32.5 284.5t-80 240.5t-94.5 178t-80 118l-32 39h186q14 -14 35.5 -40t78 -114t99.5 -185t79 -250t36 -310q0 -160 -34 -310.5t-82 -253t-96 -182.5t-81 -116l-35 -39h-186z" />
<glyph unicode="*" horiz-adv-x="952" d="M106 1055l35 112l260 -69l19 268h117l14 -268l260 67l35 -112l-250 -99l141 -225l-92 -72l-172 209l-168 -207l-94 70l145 225z" />
<glyph unicode="+" horiz-adv-x="1249" d="M133 582v147h414v451h158v-451h413v-147h-413v-451h-158v451h-414z" />
<glyph unicode="," horiz-adv-x="442" d="M14 -256l129 498h197l-174 -498h-152z" />
<glyph unicode="-" horiz-adv-x="727" d="M94 498v153h539v-153h-539z" />
<glyph unicode="." horiz-adv-x="481" d="M125 110.5q0 57.5 40 97.5t97 40t97 -40t40 -97.5t-40 -97.5t-97 -40t-97 40t-40 97.5z" />
<glyph unicode="/" horiz-adv-x="919" d="M121 -229l579 1702h166l-579 -1702h-166z" />
<glyph unicode="0" d="M125 682q0 711 467 711q250 0 356.5 -186.5t106.5 -522.5q0 -711 -469 -711q-170 0 -275.5 94.5t-145.5 245t-40 369.5zM317 623q0 -217 64.5 -351.5t206.5 -134.5q274 0 274 481v125q0 217 -65.5 351.5t-204.5 134.5q-274 0 -275 -481v-125z" />
<glyph unicode="1" d="M176 0v156l342 4v1011q-143 -66 -330 -129l-10 164q98 35 190.5 75t135.5 62l41 23h162v-1206l321 -4v-156h-852z" />
<glyph unicode="2" d="M154 0v180q293 264 434 436q70 84 105.5 134.5t65 119t29.5 131.5q0 100 -67.5 164t-183.5 64q-76 0 -175.5 -36t-164.5 -89l-9 170q72 53 173.5 86t199.5 33q199 0 309.5 -106.5t110.5 -268.5q0 -135 -73.5 -258t-225.5 -297q-78 -92 -303 -301v-2l604 -4v-156h-829z " />
<glyph unicode="3" d="M174 37l10 172q143 -72 308 -72q141 0 222 64.5t81 181.5q0 121 -103.5 179.5t-249.5 55.5l-176 -2v158l185 2q145 2 236 62.5t91 179.5q0 98 -74.5 155.5t-201.5 57.5q-158 0 -305 -84l-11 164q168 82 344 82q199 0 320 -92.5t121 -266.5q0 -70 -24.5 -129t-59.5 -93 t-71 -59.5t-60 -35.5l-25 -8v-2q10 -2 27.5 -7.5t62.5 -29t79 -56t61.5 -94t27.5 -137.5q0 -186 -133 -298t-350 -112q-180 1 -332 64z" />
<glyph unicode="4" d="M74 346v182l540 838h271v-862h219v-158h-219v-346h-189v346h-622zM233 502q229 2 463 2v706h-2l-461 -706v-2z" />
<glyph unicode="5" d="M193 37l10 172q135 -72 297 -72q145 0 229 78t84 209t-94 197.5t-240 66.5h-276l10 678h754v-156l-574 -2l-6 -366h160q199 0 330 -104.5t131 -307.5q0 -199 -139.5 -328t-354.5 -129q-186 1 -321 64z" />
<glyph unicode="6" d="M143 616q0 399 156 588t414 189q147 0 262 -52l-8 -165q-121 53 -258 53q-166 0 -271.5 -135.5t-105.5 -388.5v-17h2q4 6 12 16.5t37 35t63.5 44t91 36t117.5 16.5q197 0 298.5 -118t101.5 -294q0 -197 -114 -324t-335 -127q-233 0 -348 166t-115 477zM342 449 q0 -127 67.5 -221.5t196.5 -94.5q127 0 191.5 77t64.5 202q0 117 -65.5 191.5t-180.5 74.5q-121 0 -197.5 -67.5t-76.5 -161.5z" />
<glyph unicode="7" d="M141 1208v158h918l-541 -1366h-209l488 1204z" />
<glyph unicode="8" d="M141 342q0 74 23.5 133.5t64.5 96t74 59t72 39.5l39 16v2q-2 0 -23.5 11.5t-39 23.5t-46.5 32.5t-50.5 47t-43 59.5t-32.5 78t-11 94q0 174 125 266.5t309 92.5q182 0 296 -93.5t114 -255.5q0 -39 -7.5 -73.5t-20.5 -63t-28.5 -53.5t-36 -45.5t-37 -35.5t-38 -28.5 t-32.5 -19.5t-28 -14l-16 -9v-2l14 -6q14 -6 25.5 -11t32 -16.5t37 -22.5t38 -28.5t38 -36t32.5 -43t27.5 -50t18.5 -59.5t7 -69q0 -190 -126 -287.5t-337 -97.5q-195 0 -314.5 93.5t-119.5 275.5zM330 356q0 -111 68.5 -170t185 -59t189.5 58.5t73 170.5q0 55 -25.5 100.5 t-65.5 74t-76 47t-69 28.5l-35 12l-30 -12q-31 -10 -63.5 -27.5t-68.5 -46t-59.5 -75t-23.5 -101.5zM360 1028q0 -43 17.5 -82t41 -64.5t55.5 -48t56.5 -34t47.5 -21.5l24 -10l21 10q20 8 42.5 18.5t51 33t52.5 48t39 65.5t15 85q0 102 -60.5 155.5t-168.5 53.5 q-111 0 -172.5 -54.5t-61.5 -154.5z" />
<glyph unicode="9" d="M123 942q0 197 114.5 324t335.5 127q461 0 461 -643q0 -401 -154.5 -589t-412.5 -188q-147 0 -262 52l8 165q121 -53 258 -53q166 0 271.5 136.5t105.5 390.5v16h-2q-4 -6 -12.5 -16.5t-38 -36t-63.5 -45t-90 -36t-118 -16.5q-197 0 -299 118t-102 294zM317 954 q0 -117 66 -191.5t180 -74.5q121 0 198 67.5t77 162.5q0 125 -68 221t-197 96q-127 0 -191.5 -77t-64.5 -204z" />
<glyph unicode=":" horiz-adv-x="481" d="M125 110.5q0 57.5 40 97.5t97 40t97 -40t40 -97.5t-40 -97.5t-97 -40t-97 40t-40 97.5zM125 913.5q0 57.5 40 97.5t97 40t97 -40t40 -97.5t-40 -97.5t-97 -40t-97 40t-40 97.5z" />
<glyph unicode=";" horiz-adv-x="464" d="M39 -256l129 498h197l-175 -498h-151zM135 913.5q0 57.5 40 97.5t97.5 40t97.5 -40t40 -97.5t-40 -97.5t-97.5 -40t-97.5 40t-40 97.5z" />
<glyph unicode="&#x3c;" horiz-adv-x="1249" d="M96 655l1022 553v-166l-721 -387l721 -385v-166z" />
<glyph unicode="=" horiz-adv-x="1249" d="M133 358v148h985v-148h-985zM133 807v147h985v-147h-985z" />
<glyph unicode="&#x3e;" horiz-adv-x="1249" d="M133 104v166l719 387l-719 385v166l1022 -553z" />
<glyph unicode="?" horiz-adv-x="897" d="M145 1327q94 66 275 66q160 0 259 -84t99 -226q0 -88 -42 -159.5t-122 -157.5l-22 -23q-61 -68 -82 -123t-18 -143h-179q-8 115 22 193t105 159l23 23q63 70 92 117t29 98q0 74 -51.5 117t-135.5 43q-141 0 -241 -70zM272 100.5q0 53.5 36 89t91 35.5q53 0 89 -35.5 t36 -89t-35.5 -89.5t-91.5 -36q-53 0 -89 36t-36 89.5z" />
<glyph unicode="@" horiz-adv-x="1916" d="M135 522q0 365 243 617t621 252q324 0 541 -202t217 -493q0 -229 -96 -385.5t-281 -156.5q-66 0 -116 22.5t-74.5 54t-40.5 63.5t-19 54l-4 23h-2q-4 -8 -10 -23.5t-30.5 -52.5t-54.5 -65.5t-80 -52t-105 -23.5q-133 0 -206 90t-73 250q0 221 90 364t265 143 q63 0 116.5 -22.5t73.5 -44.5l23 -23h2l6 64h143l-43 -426q-12 -129 20.5 -195.5t127 -66.5t152.5 106.5t58 298.5q0 225 -165.5 388t-448.5 163q-307 0 -497.5 -208t-190.5 -511q0 -160 57.5 -285.5t152.5 -200.5t211 -114t243 -39q242 0 464 105l9 4l8 -156 q-23 -12 -66 -28.5t-172 -45t-256 -28.5q-143 0 -280.5 43t-260 132t-197.5 246.5t-75 364.5zM721 543q-16 -119 24.5 -185.5t128.5 -66.5q78 0 144.5 98t81.5 244l16 160q-6 8 -19.5 20t-59.5 33.5t-97 21.5q-178 0 -209 -245z" />
<glyph unicode="A" horiz-adv-x="1312" d="M70 0l467 1366h221l465 -1366h-201l-113 344h-538l-113 -344h-188zM418 506h444l-221 680h-2z" />
<glyph unicode="B" horiz-adv-x="1144" d="M164 0v1366h403q430 0 430 -330q0 -238 -235 -307v-4q43 -8 84 -24.5t88 -51.5t74.5 -98.5t27.5 -147.5q0 -403 -481 -403h-391zM352 158h189q303 0 303 239q0 238 -299 238h-193v-477zM352 793h183q131 0 199.5 57t68.5 166q0 195 -250 194h-201v-417z" />
<glyph unicode="C" horiz-adv-x="1007" d="M90 680q0 121 12.5 218t48 192.5t95 160t159 103.5t232.5 39q150 0 297 -68l-10 -170q-147 72 -273 72q-180 0 -273 -114t-93 -329v-202q0 -442 366 -443q123 0 289 97l10 -173q-160 -90 -346 -90q-129 0 -222 38t-148.5 100.5t-88 158t-44 190.5t-11.5 220z" />
<glyph unicode="D" horiz-adv-x="1257" d="M164 0v1366h405q178 0 294 -43t177.5 -135t84 -207t22.5 -289q0 -180 -30 -302t-101.5 -213t-198.5 -134t-317 -43h-336zM352 160h133q248 0 356.5 98t108.5 336v186q0 229 -101 327.5t-286 98.5h-211v-1046z" />
<glyph unicode="E" horiz-adv-x="1007" d="M164 0v1366h729v-160l-541 -2v-413h496v-162h-496v-467l541 -2v-160h-729z" />
<glyph unicode="F" horiz-adv-x="952" d="M164 0v1366h694v-160l-506 -2v-467h469v-162h-469v-575h-188z" />
<glyph unicode="G" horiz-adv-x="1212" d="M111 680q0 121 12 216t49 191.5t98.5 161t166 104.5t245.5 40q84 0 157.5 -14.5t105.5 -27t93 -38.5l-10 -172q-172 86 -336 86q-387 0 -387 -447v-202q0 -438 330 -439q147 0 250 58v372h-236v162h418v-637q-18 -14 -55 -33.5t-153 -53.5t-238 -34q-129 0 -222.5 38 t-148.5 99.5t-87 156.5t-42 190.5t-10 222.5z" />
<glyph unicode="H" horiz-adv-x="1292" d="M164 0v1366h188v-571h588v571h188v-1366h-188v627h-588v-627h-188z" />
<glyph unicode="I" horiz-adv-x="516" d="M164 0v1366h188v-1366h-188z" />
<glyph unicode="J" horiz-adv-x="702" d="M33 -2l10 158q66 -20 131 -21q184 0 184 252v979h189v-1020q0 -373 -350 -373q-41 0 -82 6.5t-62 12.5z" />
<glyph unicode="K" horiz-adv-x="1146" d="M164 0v1366h188v-610h2l488 610h231l-538 -659q233 -291 598 -707h-250q-233 266 -529 641h-2v-641h-188z" />
<glyph unicode="L" horiz-adv-x="956" d="M164 0v1366h188v-1200l535 -4v-162h-723z" />
<glyph unicode="M" horiz-adv-x="1595" d="M143 0l80 1366h201l375 -702h2l370 702h201l82 -1366h-180l-51 1108h-2l-424 -801l-422 801h-2l-49 -1108h-181z" />
<glyph unicode="N" horiz-adv-x="1298" d="M164 0v1366h198l596 -1061h3l-5 1061h181v-1366h-201l-596 1061h-2l4 -1061h-178z" />
<glyph unicode="O" horiz-adv-x="1247" d="M90 684q0 166 22.5 286t80 220t167 151.5t273.5 51.5q131 0 226 -36t152.5 -94.5t91.5 -152.5t45 -193.5t11 -232.5q0 -168 -22.5 -288t-80 -220t-168 -151.5t-272.5 -51.5q-131 0 -226 36t-152.5 94.5t-91 152.5t-45 193.5t-11.5 234.5zM285 582q0 -442 336 -443 q172 0 258 114t86 329v202q0 442 -338 443q-170 0 -256 -114t-86 -329v-202z" />
<glyph unicode="P" horiz-adv-x="1101" d="M164 0v1366h397q467 0 467 -405q0 -436 -502 -437h-174v-524h-188zM352 684h160q178 0 250 67.5t72 198.5t-69 193.5t-216 62.5h-197v-522z" />
<glyph unicode="Q" horiz-adv-x="1247" d="M90 684q0 166 22.5 286t80 220t167 151.5t273.5 51.5q131 0 226 -36t152.5 -94.5t91.5 -152.5t45 -193.5t11 -232.5q0 -315 -93 -493.5t-341 -208.5q-14 -55 -14 -109q0 -141 161 -141q33 0 50 2l6 -127q-55 -6 -101 -6q-283 0 -282 239q0 57 18 135q-117 6 -203 45 t-137 98.5t-81.5 151.5t-41 188.5t-10.5 225.5zM281 582q0 -446 340 -447q172 0 259 115t87 332v200q0 444 -340 445q-172 0 -259 -115t-87 -330v-200z" />
<glyph unicode="R" horiz-adv-x="1167" d="M164 0v1366h424q451 0 450 -385q0 -135 -73.5 -225t-206.5 -125v-2q8 -2 21.5 -7.5t46 -35t53.5 -78.5l221 -508h-219l-170 428q-51 131 -166 131h-193v-559h-188zM352 719h195q147 0 222 66.5t75 181.5q0 121 -64.5 180t-204.5 59h-223v-487z" />
<glyph unicode="S" horiz-adv-x="1040" d="M106 55l11 181q166 -96 338 -97q143 0 218 62.5t75 160.5q0 152 -250 244l-52 19q-164 59 -247.5 150t-83.5 253q0 166 118.5 265.5t325.5 99.5q180 0 322 -68l-11 -174q-168 76 -297 76q-264 0 -264 -199q0 -86 58.5 -138t181.5 -97l51 -19q170 -59 256 -154.5 t86 -250.5q0 -176 -124 -286t-351 -110q-203 0 -361 82z" />
<glyph unicode="T" horiz-adv-x="1026" d="M43 1202v164h942v-164h-377v-1202h-188v1202h-377z" />
<glyph unicode="U" horiz-adv-x="1277" d="M164 459v907h188v-907q0 -158 73 -241t214 -83q287 0 287 324v907h188v-907q0 -254 -121 -370t-362 -116q-238 0 -352.5 114t-114.5 372z" />
<glyph unicode="V" horiz-adv-x="1206" d="M47 1366h201l358 -1186h2l363 1186h188l-446 -1366h-221z" />
<glyph unicode="W" horiz-adv-x="1841" d="M63 1366h185l268 -1180h2l281 1180h245l267 -1180h4l282 1180h181l-357 -1366h-225l-278 1182h-3l-286 -1182h-226z" />
<glyph unicode="X" horiz-adv-x="1218" d="M41 0l448 707l-421 659h223l319 -516h2l316 516h219l-420 -664l451 -702h-226l-346 559h-2l-344 -559h-219z" />
<glyph unicode="Y" horiz-adv-x="1155" d="M29 1366h211l342 -721h2l342 721h200l-454 -889v-477h-189v477z" />
<glyph unicode="Z" horiz-adv-x="1067" d="M37 0l674 1204l-596 2v160h891l-674 -1204l653 -2v-160h-948z" />
<glyph unicode="[" horiz-adv-x="860" d="M279 -272v1800h387v-164h-201v-1473h201v-163h-387z" />
<glyph unicode="\" horiz-adv-x="960" d="M94 1473h166l580 -1702h-166z" />
<glyph unicode="]" horiz-adv-x="860" d="M197 -109h198v1473h-198v164h387v-1800h-387v163z" />
<glyph unicode="^" horiz-adv-x="1249" d="M82 315l553 1022l553 -1022h-168l-385 719l-385 -719h-168z" />
<glyph unicode="_" horiz-adv-x="1114" d="M0 -100h1114v-152h-1114v152z" />
<glyph unicode="`" horiz-adv-x="753" d="M213 1452h188l140 -309h-158z" />
<glyph unicode="a" horiz-adv-x="1048" d="M86 268q0 158 121 247t332 89l170 -12v121q0 182 -224 182q-143 0 -309 -78l-10 154q160 78 352 78q180 0 277.5 -76t97.5 -262v-428l8 -283h-170l-12 150h-2l-12 -19q-8 -12 -37 -43t-63 -53.5t-90 -42t-118 -19.5q-158 0 -234.5 83t-76.5 212zM274 281q0 -76 47.5 -118 t124.5 -42q102 0 182.5 84t80.5 192v66q-59 12 -158 12q-111 0 -194 -46t-83 -148z" />
<glyph unicode="b" horiz-adv-x="1132" d="M160 0q6 127 6 295v1149h184v-551h2q55 74 125 116t187 42q375 0 374 -535q0 -115 -20.5 -209t-65.5 -171t-123.5 -120t-187.5 -43q-205 0 -299 170h-2l-10 -143h-170zM350 424q0 -125 75 -209t173 -84q127 0 188.5 90t61.5 234v127q0 143 -66.5 227t-177.5 84 q-106 0 -180 -84t-74 -195v-190z" />
<glyph unicode="c" horiz-adv-x="854" d="M92 512q0 539 424 539q131 0 246 -62l-10 -155q-125 59 -228 59q-109 0 -175 -84t-66 -236v-124q0 -152 70.5 -235t174.5 -83q117 0 234 64l10 -156q-121 -66 -278 -66q-219 0 -310.5 140.5t-91.5 398.5z" />
<glyph unicode="d" horiz-adv-x="1132" d="M98 508q0 115 20.5 209t65.5 171t124 120t188 43q197 0 288 -154h2v547h185v-1163l6 -281h-172l-12 141h-2q-115 -168 -312 -168q-381 0 -381 535zM289 442q0 -143 66.5 -227t176.5 -84q104 0 179 84t75 197v188q0 125 -74.5 209t-170.5 84q-127 0 -189.5 -90t-62.5 -234 v-127z" />
<glyph unicode="e" horiz-adv-x="1015" d="M92 510q0 250 109.5 395.5t337.5 145.5q389 0 389 -469l-4 -115h-645v-39q0 -129 67.5 -214t212.5 -85q160 0 309 78l9 -156q-131 -78 -336 -78q-252 0 -350.5 139.5t-98.5 397.5zM276 602h476q0 139 -46.5 223t-170.5 84q-127 0 -193 -91t-66 -216z" />
<glyph unicode="f" horiz-adv-x="720" d="M12 870v154h238v135q0 147 76.5 228t222.5 81q31 0 65.5 -3t53.5 -7l18 -4l-10 -149q-45 10 -98 10q-143 0 -144 -174v-117h273v-154h-273v-870h-184v870h-238z" />
<glyph unicode="g" horiz-adv-x="1126" d="M78 -158q0 76 50 144.5t144 113.5v2q-6 2 -15 4.5t-31.5 13.5t-41 26.5t-33 43t-14.5 62.5q0 96 109 178l4 4q-6 4 -16.5 10.5t-35 30t-44 52t-36 76.5t-16.5 102q0 158 122 251t311 93q41 0 86 -6.5t69 -12.5l25 -6l375 2l-11 -149l-202 16q74 -74 73 -178 q0 -160 -122.5 -251t-309.5 -91q-45 0 -85 4t-58 8l-19 4q-49 -51 -49 -92q0 -82 160 -84l162 -2q172 -2 266 -79t94 -212q0 -156 -147.5 -260t-362.5 -104q-197 0 -299 76.5t-102 209.5zM258 -135q0 -80 65.5 -130t178.5 -50q133 0 221 63.5t88 145.5v14q0 74 -61.5 113.5 t-176.5 39.5h-153q-6 -2 -17.5 -7t-39 -21.5t-49 -37t-39 -56t-17.5 -74.5zM295 692q0 -94 62.5 -143t172.5 -49q109 0 175.5 54t66.5 138v29q0 90 -64.5 142t-173 52t-174 -54t-65.5 -140v-29z" />
<glyph unicode="h" horiz-adv-x="1132" d="M152 0v1444h184v-553h2q4 6 13 17.5t40 39t66 48t89 38t111 17.5q328 0 328 -344v-707h-184v649q0 104 -43 169t-162 65q-102 0 -181 -72t-79 -162v-649h-184z" />
<glyph unicode="i" horiz-adv-x="505" d="M131 1315q0 53 37 89t88 36t88 -36t37 -89t-37 -89t-88 -36t-88 36t-37 89zM164 0v1024h184v-1024h-184z" />
<glyph unicode="j" horiz-adv-x="526" d="M-49 -430l10 149q37 -10 88 -10q135 0 135 174v1141h185v-1153q0 -154 -75 -234.5t-214 -80.5zM152 1315q0 53 36.5 89t88 36t88 -36t36.5 -89t-36.5 -89t-88 -36t-88 36t-36.5 89z" />
<glyph unicode="k" horiz-adv-x="1046" d="M152 0v1444h182v-860h2l383 440h231l-418 -461q184 -221 502 -563h-243q-109 117 -222.5 246t-173.5 200l-59 70h-2v-516h-182z" />
<glyph unicode="l" horiz-adv-x="497" d="M160 0v1444h184v-1444h-184z" />
<glyph unicode="m" horiz-adv-x="1701" d="M154 0v1024h178v-141h2q4 6 12 17t38 41t61.5 51.5t84 40t107.5 18.5q213 0 283 -183q4 8 14 20.5t41 43.5t65.5 55.5t90 44t110.5 19.5q313 0 313 -344v-707h-184v649q0 106 -39 170t-145 64q-94 0 -167 -72t-73 -162v-649h-184v649q0 106 -39 170t-145 64 q-94 0 -167 -72t-73 -162v-649h-184z" />
<glyph unicode="n" horiz-adv-x="1136" d="M156 0v1024h178v-141h2q4 6 13 17t41 41t67 51.5t90 40t115 18.5q328 0 327 -344v-707h-184v649q0 104 -43 169t-162 65q-102 0 -181 -72t-79 -162v-649h-184z" />
<glyph unicode="o" horiz-adv-x="1077" d="M98 508q0 543 445 543q233 0 334.5 -137.5t101.5 -397.5q0 -541 -444 -541q-233 0 -335 136.5t-102 396.5zM289 436q0 -145 64.5 -228t183 -83t185 85t66.5 232v146q0 145 -64.5 228t-183 83t-185 -85t-66.5 -232v-146z" />
<glyph unicode="p" horiz-adv-x="1118" d="M147 -420v1444h175v-145h2q55 80 126.5 126t188.5 46q381 0 381 -535q0 -115 -20.5 -209t-65.5 -171t-124 -120t-187 -43q-197 0 -289 154h-2v-547h-185zM332 424q0 -125 74.5 -209t171.5 -84q125 0 188 90t63 234v127q0 143 -66.5 227t-176.5 84q-104 0 -179 -84 t-75 -197v-188z" />
<glyph unicode="q" horiz-adv-x="1126" d="M98 508q0 115 20.5 209t65.5 171t124 120t188 43q205 0 299 -170h2l10 143h170q-6 -127 -6 -295v-1149h-185v551h-2q-55 -74 -124.5 -116t-186.5 -42q-375 0 -375 535zM289 442q0 -143 66.5 -227t176.5 -84q106 0 180 84t74 195v190q0 125 -74.5 209t-172.5 84 q-127 0 -188.5 -90t-61.5 -234v-127z" />
<glyph unicode="r" horiz-adv-x="729" d="M152 0v1024h176v-162h2q6 16 22.5 39t52 60.5t96 63.5t134.5 26l45 -4l-10 -179q-29 4 -66 4q-117 0 -192.5 -80.5t-75.5 -179.5v-612h-184z" />
<glyph unicode="s" horiz-adv-x="888" d="M102 47l11 156q141 -82 278 -82q111 0 162 42t51 107q0 63 -44 99.5t-144 74.5l-66 27q-115 43 -180.5 111.5t-65.5 185.5q0 129 94.5 206t272.5 77q145 0 268 -66l-10 -158q-129 76 -252 76q-184 0 -184 -125q0 -57 43 -94t145 -76l66 -24q119 -45 182.5 -113t63.5 -186 q0 -145 -99.5 -227.5t-292.5 -82.5q-164 0 -299 72z" />
<glyph unicode="t" horiz-adv-x="776" d="M12 870v154h238v262l186 25l-2 -287h273v-154h-273l-2 -606q-4 -137 121 -137l143 31l11 -142q-96 -43 -209 -43q-252 0 -252 267l4 630h-238z" />
<glyph unicode="u" horiz-adv-x="1124" d="M152 317v707h184v-649q0 -233 199 -234q96 0 172.5 72t76.5 164v647h185v-772l6 -252h-168l-16 141h-3q-4 -6 -13 -17t-39.5 -41t-65.5 -51.5t-89.5 -40t-109.5 -18.5q-319 0 -319 344z" />
<glyph unicode="v" horiz-adv-x="1038" d="M53 1024h191l280 -868h2l281 868h178l-358 -1024h-215z" />
<glyph unicode="w" horiz-adv-x="1519" d="M53 1024h183l198 -840h2l217 840h221l218 -840h2l198 840h172l-270 -1024h-209l-225 840h-2l-226 -840h-208z" />
<glyph unicode="x" horiz-adv-x="1009" d="M29 0l358 532l-332 492h213l236 -369h2l239 369h211l-333 -496l358 -528h-215l-260 403h-2l-262 -403h-213z" />
<glyph unicode="y" horiz-adv-x="1060" d="M45 1024h195l295 -838h2l299 838h186q-291 -819 -567 -1444h-203q47 96 95 200.5t71 162.5l24 57z" />
<glyph unicode="z" horiz-adv-x="983" d="M78 0l536 870l-464 2v152h751l-534 -870l522 -2v-152h-811z" />
<glyph unicode="{" horiz-adv-x="847" d="M133 555v145l21 6q12 3 43.5 17t55 33.5t43 58.5t17.5 86l-8 242q-8 199 76 292t264 93h29v-158h-19q-86 -2 -128 -44t-40 -159l9 -258q2 -106 -42 -175.5t-89 -86.5l-46 -18v-2q8 -2 20.5 -6.5t43.5 -23.5t54.5 -48t42 -82t16.5 -121l-9 -258q-2 -117 40 -159t128 -44 h19v-157h-29q-180 0 -264 93t-76 292l8 241q2 76 -43 126t-90 63z" />
<glyph unicode="|" horiz-adv-x="632" d="M238 -420v1864h157v-1864h-157z" />
<glyph unicode="}" horiz-adv-x="847" d="M174 -115h19q86 2 127.5 44t39.5 159l-8 258q-2 68 15.5 121t44 82t53.5 47t45 25l18 6v2q-8 2 -20 6t-43 23.5t-54.5 48t-42 82t-16.5 120.5l8 258q2 117 -39.5 159t-127.5 44h-19v158h29q180 0 264 -93.5t76 -291.5l-8 -242q-2 -76 43 -126t90 -62l47 -13v-145l-21 -5 q-12 -3 -44 -17.5t-55.5 -34t-43 -58.5t-16.5 -86l8 -241q8 -199 -76 -292t-264 -93h-29v157z" />
<glyph unicode="~" horiz-adv-x="1249" d="M135 694q121 90 262 90q92 0 236.5 -53t220.5 -53q57 0 120.5 23.5t98.5 46.5l33 22l8 -154q-119 -90 -262 -90q-88 0 -233.5 53.5t-223.5 53.5q-57 0 -119.5 -23.5t-95.5 -46.5l-35 -22z" />
<glyph unicode="&#xa1;" horiz-adv-x="479" d="M115 1265.5q0 53.5 35.5 89.5t91.5 36q53 0 89 -36t36 -89.5t-36 -89t-91 -35.5q-53 0 -89 35.5t-36 89zM143 0l11 889h174l8 -889h-193z" />
<glyph unicode="&#xa2;" d="M229 682q0 487 344 535v149h123v-147q104 -8 203 -58l-10 -157q-117 61 -227 61q-109 0 -175.5 -84t-66.5 -236v-124q0 -152 70.5 -236t173.5 -84q119 0 235 64l10 -154q-92 -53 -213 -64v-147h-123v147q-186 18 -265 156.5t-79 378.5z" />
<glyph unicode="&#xa3;" d="M213 655l10 138h168l-14 180q-16 205 84 312.5t270 107.5q113 0 215 -43l-8 -162q-96 43 -195 43q-205 0 -182 -256l14 -182h379l-10 -138h-356l12 -161q6 -76 -8 -138.5t-40 -97.5t-52.5 -58.5t-44.5 -31.5l-21 -8v-2h520v-158h-739v176q8 2 23.5 7t52.5 29t64.5 54.5 t48 87t14.5 123.5l-15 178h-190z" />
<glyph unicode="&#xa4;" horiz-adv-x="1269" d="M123 283l156 155q-78 106 -78 244q0 135 78 246l-156 155l110 111l156 -156q111 78 246 78t246 -78l155 156l111 -111l-156 -155q78 -111 78 -246q0 -137 -78 -244l156 -155l-111 -111l-155 156q-111 -78 -246 -78t-246 78l-156 -156zM346 682q0 -119 85 -204t204 -85 t204 85t85 204q0 121 -85 205t-204 84t-204 -84t-85 -205z" />
<glyph unicode="&#xa5;" d="M129 1366h190l275 -649h2l272 649h181l-308 -676h287l-8 -135h-340v-178h348l-8 -135h-340v-242h-182v242h-348l10 135h338v178h-348l10 135h278z" />
<glyph unicode="&#xa6;" horiz-adv-x="632" d="M238 203h157v-623h-157v623zM238 819v625h157v-625h-157z" />
<glyph unicode="&#xa7;" horiz-adv-x="993" d="M123 582q0 178 158 270l34 16v2l-15 11q-9 6 -32.5 29.5t-42 51t-33 73.5t-14.5 98q0 150 104.5 234.5t260.5 84.5q131 0 250 -49l-9 -160q-113 53 -225 53q-86 0 -141.5 -38.5t-55.5 -116.5q0 -74 48.5 -117t146.5 -84l64 -27q133 -57 199.5 -132.5t66.5 -213.5 q0 -66 -19.5 -121t-48 -87.5t-57.5 -55t-49 -33.5l-19 -8v-2q6 -4 15.5 -9t32 -27.5t41 -49.5t32.5 -70t14 -90q0 -170 -104 -259t-268 -89q-150 0 -279 53l8 168q137 -66 271 -65q86 0 138 45t52 125q0 57 -36 103t-74.5 67.5t-100.5 48.5l-57 22q-256 105 -256 349z M293 598q0 -80 42 -127t134 -84l98 -41q6 2 16.5 5t35 18.5t44 36t36 59.5t16.5 86q0 133 -158 199l-111 45q-6 -2 -16 -5.5t-36.5 -19.5t-47 -35.5t-37 -56.5t-16.5 -80z" />
<glyph unicode="&#xa8;" horiz-adv-x="753" d="M27 1296.5q0 49.5 34.5 84t84 34.5t84 -34.5t34.5 -84t-34.5 -85t-84 -35.5t-84 35.5t-34.5 85zM489 1296.5q0 49.5 35 84t84 34.5q51 0 86 -34.5t35 -84t-35 -85t-86 -35.5q-49 0 -84 35.5t-35 85z" />
<glyph unicode="&#xa9;" horiz-adv-x="1636" d="M92 686q0 315 209 518t516 203t516 -204t209 -521q0 -315 -209 -518t-516 -203t-516 204t-209 521zM223 686q0 -264 172 -434t424 -170t423 170t171 434q0 260 -172 430t-424 170t-423 -170t-171 -430zM543 684q0 352 301 352q43 0 84 -9t59 -19l21 -9l-9 -118 q-70 37 -143 37q-80 0 -126 -48.5t-46 -140.5v-92q0 -98 47 -143t125 -45q31 0 69 12t58 24l23 13l8 -117q-68 -51 -193 -51q-278 0 -278 354z" />
<glyph unicode="&#xaa;" horiz-adv-x="751" d="M68 621q0 109 86 168t229 59l104 -6v61q0 106 -139 107q-104 0 -219 -56l-8 125q111 57 250 58q268 0 268 -232v-282l6 -191h-143l-4 92h-2q-2 -4 -7.5 -11t-24 -26.5t-40 -34t-57 -25.5t-76.5 -11q-113 0 -168 58.5t-55 146.5zM86 0v125h561v-125h-561zM223 629 q0 -92 103 -92q61 0 111 50t50 113v41q-41 6 -94 7q-80 0 -125 -33t-45 -86z" />
<glyph unicode="&#xab;" horiz-adv-x="1210" d="M94 551l305 473h193l-307 -473l307 -473h-193zM618 551l306 473h192l-305 -473l305 -473h-192z" />
<glyph unicode="&#xac;" horiz-adv-x="1249" d="M133 715v145h985v-530h-157v385h-828z" />
<glyph unicode="&#xad;" horiz-adv-x="727" d="M94 498v153h539v-153h-539z" />
<glyph unicode="&#xae;" horiz-adv-x="1302" d="M68 836q0 250 167.5 410.5t413.5 160.5q248 0 417 -162t169 -413.5t-169 -411.5t-417 -160q-246 0 -413.5 162t-167.5 414zM184 836q0 -205 134.5 -337t333 -132t333.5 132t135 337q0 203 -135 333.5t-333.5 130.5t-333 -130.5t-134.5 -333.5zM481 569v527h183 q186 0 186 -154q0 -88 -105 -127q29 -10 43 -47l66 -199h-113l-51 166q-10 41 -53 41h-55v-207h-101zM582 858h57q109 0 109 78q0 76 -95 76h-71v-154z" />
<glyph unicode="&#xaf;" horiz-adv-x="753" d="M39 1296v156h676v-156h-676z" />
<glyph unicode="&#xb0;" horiz-adv-x="862" d="M86 1046.5q0 143.5 100.5 245t243.5 101.5t244.5 -101.5t101.5 -245t-101.5 -244t-244.5 -100.5t-243.5 100.5t-100.5 244zM236 1047q0 -82 56 -139.5t138 -57.5t138.5 57.5t56.5 139.5q0 84 -56.5 141t-138.5 57t-138 -57t-56 -141z" />
<glyph unicode="&#xb1;" horiz-adv-x="1249" d="M133 -8v147h985v-147h-985zM133 582v147h414v377h158v-377h413v-147h-413v-377h-158v377h-414z" />
<glyph unicode="&#xb2;" horiz-adv-x="714" d="M70 432v139q193 178 276 283q109 133 109 215q0 57 -38 93t-106 36q-49 0 -110.5 -24.5t-102.5 -59.5l-10 139q106 74 250 74q127 0 201.5 -68.5t74.5 -175.5q0 -86 -48 -164.5t-142 -185.5q-27 -29 -94.5 -94.5t-77.5 -75.5v-2l364 -2v-127h-546z" />
<glyph unicode="&#xb3;" horiz-adv-x="733" d="M82 461l8 135q102 -51 207 -51q82 0 132 38t50 101q0 70 -62.5 103.5t-148.5 31.5l-131 -2v123l137 2q86 0 140.5 35t54.5 102q0 53 -43 86t-119 33q-113 0 -211 -59l-8 133q111 55 238 55q133 0 217 -60.5t84 -176.5q0 -72 -39 -122t-78 -65l-39 -14v-2q6 -2 17.5 -4 t40 -16.5t50 -35t40 -58.5t18.5 -87q0 -123 -92 -196.5t-236 -73.5q-133 0 -227 45z" />
<glyph unicode="&#xb4;" horiz-adv-x="753" d="M213 1143l139 309h189l-170 -309h-158z" />
<glyph unicode="&#xb5;" horiz-adv-x="1126" d="M156 -420v1444h184v-649q0 -233 197 -234q98 0 174.5 73t76.5 163v647h185v-772l6 -252h-170l-12 145h-4q-16 -39 -100.5 -105.5t-188.5 -66.5q-55 0 -100.5 17.5t-60.5 30t-24 22.5q0 -2 2.5 -26.5t4.5 -67.5t4 -98.5t4 -128t2 -142.5h-180z" />
<glyph unicode="&#xb6;" horiz-adv-x="1341" d="M104 897q0 211 147.5 340t358.5 129h164v-1366h-162v420q-215 0 -361.5 129t-146.5 348zM276 897q0 -147 94.5 -235.5t241.5 -88.5v641q-141 0 -238.5 -85t-97.5 -232zM963 0v1366h161v-1366h-161z" />
<glyph unicode="&#xb7;" horiz-adv-x="481" d="M104 575.5q0 57.5 40 97.5t97.5 40t97.5 -40t40 -97.5t-40 -97.5t-97.5 -40t-97.5 40t-40 97.5z" />
<glyph unicode="&#xb8;" horiz-adv-x="753" d="M190 -471l5 119q37 -4 53 -4q162 0 162 145q0 49 -15 105h150q20 -72 20 -134q0 -238 -282 -237q-44 0 -93 6z" />
<glyph unicode="&#xb9;" horiz-adv-x="565" d="M25 1200q61 20 124.5 48t96.5 46l30 17h123v-879h-153v721q-96 -43 -213 -84z" />
<glyph unicode="&#xba;" horiz-adv-x="772" d="M76 774q0 362 313 363q307 0 307 -359q0 -362 -313 -362q-307 0 -307 358zM96 0v125h580v-125h-580zM233 727q0 -90 40 -138t112 -48t113 50t41 140v94q0 90 -40 138.5t-112 48.5t-113 -50.5t-41 -140.5v-94z" />
<glyph unicode="&#xbb;" horiz-adv-x="1210" d="M94 78l305 473l-305 473h191l307 -473l-307 -473h-191zM618 78l306 473l-306 473h193l305 -473l-305 -473h-193z" />
<glyph unicode="&#xbc;" horiz-adv-x="1712" d="M25 1200q61 20 124.5 48t96.5 46l30 17h123v-879h-153v721q-96 -43 -213 -84zM281 -164l831 1704h176l-831 -1704h-176zM942 211v139l338 529h219v-539h139v-129h-139v-211h-153v211h-404zM1067 340h279v430h-3l-276 -428v-2z" />
<glyph unicode="&#xbd;" horiz-adv-x="1658" d="M25 1200q61 20 124.5 48t96.5 46l30 17h123v-879h-153v721q-96 -43 -213 -84zM281 -164l831 1704h176l-831 -1704h-176zM1016 0v139q190 178 274 283q57 70 84 117t27 98q0 57 -38 92t-108 35q-47 0 -108.5 -24.5t-104.5 -59.5l-8 139q104 76 248 76q129 0 204 -68.5 t75 -177.5q0 -84 -48.5 -162.5t-142.5 -185.5q-27 -31 -96.5 -95.5t-77.5 -74.5v-2l367 -2v-127h-547z" />
<glyph unicode="&#xbe;" horiz-adv-x="1857" d="M82 461l8 135q102 -51 207 -51q82 0 132 38t50 101q0 70 -62.5 103.5t-148.5 31.5l-131 -2v123l137 2q86 0 140.5 35t54.5 102q0 53 -43 86t-119 33q-113 0 -211 -59l-8 133q111 55 238 55q133 0 217 -60.5t84 -176.5q0 -72 -39 -122t-78 -65l-39 -14v-2q6 -2 17.5 -4 t40 -16.5t50 -35t40 -59.5t18.5 -88q0 -123 -92 -195.5t-236 -72.5q-133 0 -227 45zM420 -164l831 1704h176l-829 -1704h-178zM1087 211v139l338 529h220v-539h139v-129h-139v-211h-156v211h-402zM1212 340h279v430h-2l-277 -428v-2z" />
<glyph unicode="&#xbf;" horiz-adv-x="897" d="M123 285q0 88 42 159.5t122 157.5l20 23q63 68 84 123t19 143h178q8 -117 -21.5 -193.5t-105.5 -158.5l-23 -23q-121 -131 -121 -215q0 -74 51.5 -117t135.5 -43q141 0 241 70l11 -170q-94 -66 -275 -66q-160 0 -259 84.5t-99 225.5zM377 1267.5q0 53.5 36 89.5t89 36 q55 0 91 -36t36 -89.5t-36 -90t-91 -36.5q-53 0 -89 36.5t-36 90z" />
<glyph unicode="&#xc0;" horiz-adv-x="1312" d="M70 0l467 1366h221l465 -1366h-201l-113 344h-538l-113 -344h-188zM418 506h444l-221 680h-2zM442 1780h189l139 -310h-158z" />
<glyph unicode="&#xc1;" horiz-adv-x="1312" d="M70 0l467 1366h221l465 -1366h-201l-113 344h-538l-113 -344h-188zM418 506h444l-221 680h-2zM475 1470l139 310h191l-170 -310h-160z" />
<glyph unicode="&#xc2;" horiz-adv-x="1312" d="M70 0l467 1366h221l465 -1366h-201l-113 344h-538l-113 -344h-188zM319 1470l238 310h180l236 -310h-172l-154 191l-155 -191h-173zM418 506h444l-221 680h-2z" />
<glyph unicode="&#xc3;" horiz-adv-x="1312" d="M70 0l467 1366h221l465 -1366h-201l-113 344h-538l-113 -344h-188zM307 1544q0 238 187 238q53 0 147 -46t125 -46q70 0 70 92h133q0 -238 -187 -238q-53 0 -147 46t-125 46q-70 0 -70 -92h-133zM418 506h444l-221 680h-2z" />
<glyph unicode="&#xc4;" horiz-adv-x="1312" d="M70 0l467 1366h221l465 -1366h-201l-113 344h-538l-113 -344h-188zM287 1624q0 49 34.5 84t86.5 35q49 0 83.5 -35t34.5 -84t-34.5 -85t-83.5 -36q-51 0 -86 36t-35 85zM418 506h444l-221 680h-2zM752 1624q0 49 34.5 84t84 35t84 -35t34.5 -84t-34.5 -85t-84 -36t-84 36 t-34.5 85z" />
<glyph unicode="&#xc5;" horiz-adv-x="1312" d="M70 0l467 1366h221l465 -1366h-201l-113 344h-538l-113 -344h-188zM418 506h444l-221 680h-2zM418 1661q0 86 62.5 146.5t154.5 60.5t154.5 -60.5t62.5 -146.5t-62.5 -145.5t-154.5 -59.5t-154.5 59.5t-62.5 145.5zM532 1661q0 -45 30 -76t73 -31q45 0 74.5 31t29.5 76 t-29.5 75.5t-74.5 30.5q-43 0 -73 -30.5t-30 -75.5z" />
<glyph unicode="&#xc6;" horiz-adv-x="1761" d="M53 0l740 1366h839v-160l-534 -2v-413h487v-162h-487v-467l549 -2v-160h-738v387h-446l-207 -387h-203zM543 549h366v686h-2z" />
<glyph unicode="&#xc7;" horiz-adv-x="1007" d="M90 680q0 121 12.5 218t48 192.5t95 160t159 103.5t232.5 39q150 0 297 -68l-10 -170q-147 72 -273 72q-180 0 -273 -114t-93 -329v-202q0 -442 366 -443q123 0 289 97l10 -173q-160 -90 -346 -90q-129 0 -222 38t-148.5 100.5t-88 158t-44 190.5t-11.5 220zM354 -471 l4 119q37 -4 54 -4q162 0 161 145q0 49 -14 105h150q20 -72 20 -134q0 -238 -283 -237q-43 0 -92 6z" />
<glyph unicode="&#xc8;" horiz-adv-x="1007" d="M164 0v1366h729v-160l-541 -2v-413h496v-162h-496v-467l541 -2v-160h-729zM324 1780h188l139 -310h-157z" />
<glyph unicode="&#xc9;" horiz-adv-x="1007" d="M164 0v1366h729v-160l-541 -2v-413h496v-162h-496v-467l541 -2v-160h-729zM401 1470l140 310h188l-168 -310h-160z" />
<glyph unicode="&#xca;" horiz-adv-x="1007" d="M164 0v1366h729v-160l-541 -2v-413h496v-162h-496v-467l541 -2v-160h-729zM199 1470l235 310h180l238 -310h-172l-156 191l-153 -191h-172z" />
<glyph unicode="&#xcb;" horiz-adv-x="1007" d="M164 0v1366h729v-160l-541 -2v-413h496v-162h-496v-467l541 -2v-160h-729zM176 1624q0 49 35 84t86 35q49 0 84 -35t35 -84t-35 -85t-84 -36q-51 0 -86 36t-35 85zM641 1624q0 49 35 84t84 35t84 -35t35 -84t-35 -85t-84 -36t-84 36t-35 85z" />
<glyph unicode="&#xcc;" horiz-adv-x="516" d="M74 1780h188l139 -310h-157zM164 0v1366h188v-1366h-188z" />
<glyph unicode="&#xcd;" horiz-adv-x="516" d="M106 1470l140 310h190l-170 -310h-160zM164 0v1366h188v-1366h-188z" />
<glyph unicode="&#xce;" horiz-adv-x="516" d="M-68 1470l238 310h180l236 -310h-172l-154 191l-156 -191h-172zM164 0v1366h188v-1366h-188z" />
<glyph unicode="&#xcf;" horiz-adv-x="516" d="M-96 1624q0 49 34.5 84t84 35t84 -35t34.5 -84t-34.5 -85t-84 -36t-84 36t-34.5 85zM164 0v1366h188v-1366h-188zM367 1624q0 49 34.5 84t84 35t85 -35t35.5 -84t-35.5 -85t-85 -36t-84 36t-34.5 85z" />
<glyph unicode="&#xd0;" horiz-adv-x="1290" d="M33 608v150h164v608h405q178 0 294 -43t177.5 -135t84 -207t22.5 -289q0 -180 -30 -302t-101.5 -213t-198.5 -134t-318 -43h-335v608h-164zM385 160h131q248 0 357.5 98t109.5 336v186q0 229 -101.5 327.5t-285.5 98.5h-211v-448h238v-150h-238v-448z" />
<glyph unicode="&#xd1;" horiz-adv-x="1298" d="M164 0v1366h198l596 -1061h3l-5 1061h181v-1366h-201l-596 1061h-2l4 -1061h-178zM289 1544q0 238 186 238q53 0 147.5 -46t125.5 -46q70 0 69 92h133q0 -238 -186 -238q-53 0 -147.5 46t-124.5 46q-70 0 -70 -92h-133z" />
<glyph unicode="&#xd2;" horiz-adv-x="1247" d="M90 684q0 166 22.5 286t80 220t167 151.5t273.5 51.5q131 0 226 -36t152.5 -94.5t91.5 -152.5t45 -193.5t11 -232.5q0 -168 -22.5 -288t-80 -220t-168 -151.5t-272.5 -51.5q-131 0 -226 36t-152.5 94.5t-91 152.5t-45 193.5t-11.5 234.5zM285 582q0 -442 336 -443 q172 0 258 114t86 329v202q0 442 -338 443q-170 0 -256 -114t-86 -329v-202zM459 1780h188l139 -310h-157z" />
<glyph unicode="&#xd3;" horiz-adv-x="1247" d="M90 684q0 166 22.5 286t80 220t167 151.5t273.5 51.5q131 0 226 -36t152.5 -94.5t91.5 -152.5t45 -193.5t11 -232.5q0 -168 -22.5 -288t-80 -220t-168 -151.5t-272.5 -51.5q-131 0 -226 36t-152.5 94.5t-91 152.5t-45 193.5t-11.5 234.5zM285 582q0 -442 336 -443 q172 0 258 114t86 329v202q0 442 -338 443q-170 0 -256 -114t-86 -329v-202zM504 1470l139 310h188l-167 -310h-160z" />
<glyph unicode="&#xd4;" horiz-adv-x="1247" d="M90 684q0 166 22.5 286t80 220t167 151.5t273.5 51.5q131 0 226 -36t152.5 -94.5t91.5 -152.5t45 -193.5t11 -232.5q0 -168 -22.5 -288t-80 -220t-168 -151.5t-272.5 -51.5q-131 0 -226 36t-152.5 94.5t-91 152.5t-45 193.5t-11.5 234.5zM285 582q0 -442 336 -443 q172 0 258 114t86 329v202q0 442 -338 443q-170 0 -256 -114t-86 -329v-202zM317 1470l238 310h180l236 -310h-170l-156 191l-156 -191h-172z" />
<glyph unicode="&#xd5;" horiz-adv-x="1247" d="M90 684q0 166 22.5 286t80 220t167 151.5t273.5 51.5q131 0 226 -36t152.5 -94.5t91.5 -152.5t45 -193.5t11 -232.5q0 -168 -22.5 -288t-80 -220t-168 -151.5t-272.5 -51.5q-131 0 -226 36t-152.5 94.5t-91 152.5t-45 193.5t-11.5 234.5zM285 582q0 -442 336 -443 q172 0 258 114t86 329v202q0 442 -338 443q-170 0 -256 -114t-86 -329v-202zM309 1544q0 238 189 238q51 0 146 -46t124 -46q70 0 70 92h135q0 -238 -189 -238q-51 0 -145 46t-125 46q-70 0 -70 -92h-135z" />
<glyph unicode="&#xd6;" horiz-adv-x="1247" d="M90 684q0 166 22.5 286t80 220t167 151.5t273.5 51.5q131 0 226 -36t152.5 -94.5t91.5 -152.5t45 -193.5t11 -232.5q0 -168 -22.5 -288t-80 -220t-168 -151.5t-272.5 -51.5q-131 0 -226 36t-152.5 94.5t-91 152.5t-45 193.5t-11.5 234.5zM285 582q0 -442 336 -443 q172 0 258 114t86 329v202q0 442 -338 443q-170 0 -256 -114t-86 -329v-202zM291 1624q0 49 34.5 84t84 35t84 -35t34.5 -84t-34.5 -85t-84 -36t-84 36t-34.5 85zM756 1624q0 49 34.5 84t84 35t84 -35t34.5 -84t-34.5 -85t-84 -36t-84 36t-34.5 85z" />
<glyph unicode="&#xd7;" horiz-adv-x="1249" d="M164 303l352 352l-352 355l108 108l353 -354l354 354l108 -108l-354 -355l354 -352l-108 -108l-354 352l-353 -352z" />
<glyph unicode="&#xd8;" horiz-adv-x="1232" d="M90 684q0 166 22.5 286t80 220t167 151.5t273.5 51.5q72 0 151 -15l66 207h115l-76 -239q156 -68 213 -233t57 -429q0 -168 -22.5 -288t-80 -220t-168 -151.5t-272.5 -51.5q-76 0 -153 15l-64 -207h-114l73 239q-156 68 -212 232t-56 432zM281 582q0 -279 137 -381 l325 1013q-55 16 -116 17q-172 0 -259 -116t-87 -331v-202zM504 152q55 -16 117 -17q174 0 261 116t87 331v202q0 279 -140 381z" />
<glyph unicode="&#xd9;" horiz-adv-x="1277" d="M164 459v907h188v-907q0 -158 73 -241t214 -83q287 0 287 324v907h188v-907q0 -254 -121 -370t-362 -116q-238 0 -352.5 114t-114.5 372zM442 1780h189l139 -310h-158z" />
<glyph unicode="&#xda;" horiz-adv-x="1277" d="M164 459v907h188v-907q0 -158 73 -241t214 -83q287 0 287 324v907h188v-907q0 -254 -121 -370t-362 -116q-238 0 -352.5 114t-114.5 372zM487 1470l140 310h188l-168 -310h-160z" />
<glyph unicode="&#xdb;" horiz-adv-x="1277" d="M164 459v907h188v-907q0 -158 73 -241t214 -83q287 0 287 324v907h188v-907q0 -254 -121 -370t-362 -116q-238 0 -352.5 114t-114.5 372zM324 1470l235 310h180l236 -310h-170l-156 191l-155 -191h-170z" />
<glyph unicode="&#xdc;" horiz-adv-x="1277" d="M164 459v907h188v-907q0 -158 73 -241t214 -83q287 0 287 324v907h188v-907q0 -254 -121 -370t-362 -116q-238 0 -352.5 114t-114.5 372zM279 1624q0 49 34.5 84t85.5 35q49 0 84 -35t35 -84t-34.5 -85t-84.5 -36q-51 0 -85.5 36t-34.5 85zM743 1624q0 49 35 84t84 35 t84 -35t35 -84t-35 -85t-84 -36t-84 36t-35 85z" />
<glyph unicode="&#xdd;" horiz-adv-x="1155" d="M29 1366h211l342 -721h2l342 721h200l-454 -889v-477h-189v477zM451 1470l139 310h190l-170 -310h-159z" />
<glyph unicode="&#xde;" horiz-adv-x="1105" d="M164 0v1366h188v-242h209q467 0 467 -405q0 -436 -502 -436h-174v-283h-188zM352 442h160q178 0 250 68t72 197q0 133 -69 195.5t-216 62.5h-197v-523z" />
<glyph unicode="&#xdf;" horiz-adv-x="1175" d="M156 0v1026q0 442 432 442q102 0 177 -30.5t111.5 -79.5t53 -99.5t16.5 -103.5q0 -68 -20.5 -111t-69.5 -100l-33 -39q-59 -76 -59 -131q0 -33 20.5 -60.5t92.5 -88.5l32 -27q86 -72 124 -139.5t38 -173.5q0 -133 -96 -222.5t-256 -89.5q-127 0 -225 54l10 155 q98 -55 196 -55q82 0 130.5 44t48.5 105q0 57 -29 99.5t-105 107.5l-32 29q-131 113 -131 236q0 111 82 210l30 37q25 31 35 46.5t20.5 42t10.5 55.5q0 63 -41 119.5t-144 56.5q-236 0 -235 -289v-1026h-184z" />
<glyph unicode="&#xe0;" horiz-adv-x="1048" d="M86 268q0 158 121 247t332 89l170 -12v121q0 182 -224 182q-143 0 -309 -78l-10 154q160 78 352 78q180 0 277.5 -76t97.5 -262v-428l8 -283h-170l-12 150h-2l-12 -19q-8 -12 -37 -43t-63 -53.5t-90 -42t-118 -19.5q-158 0 -234.5 83t-76.5 212zM274 281q0 -76 47.5 -118 t124.5 -42q102 0 182.5 84t80.5 192v66q-59 12 -158 12q-111 0 -194 -46t-83 -148zM358 1473h191l139 -310h-160z" />
<glyph unicode="&#xe1;" horiz-adv-x="1048" d="M86 268q0 158 121 247t332 89l170 -12v121q0 182 -224 182q-143 0 -309 -78l-10 154q160 78 352 78q180 0 277.5 -76t97.5 -262v-428l8 -283h-170l-12 150h-2l-12 -19q-8 -12 -37 -43t-63 -53.5t-90 -42t-118 -19.5q-158 0 -234.5 83t-76.5 212zM274 281q0 -76 47.5 -118 t124.5 -42q102 0 182.5 84t80.5 192v66q-59 12 -158 12q-111 0 -194 -46t-83 -148zM371 1163l139 310h188l-168 -310h-159z" />
<glyph unicode="&#xe2;" horiz-adv-x="1048" d="M86 268q0 158 121 247t332 89l170 -12v121q0 182 -224 182q-143 0 -309 -78l-10 154q160 78 352 78q180 0 277.5 -76t97.5 -262v-428l8 -283h-170l-12 150h-2l-12 -19q-8 -12 -37 -43t-63 -53.5t-90 -42t-118 -19.5q-158 0 -234.5 83t-76.5 212zM197 1163l235 310h182 l236 -310h-172l-156 191l-153 -191h-172zM274 281q0 -76 47.5 -118t124.5 -42q102 0 182.5 84t80.5 192v66q-59 12 -158 12q-111 0 -194 -46t-83 -148z" />
<glyph unicode="&#xe3;" horiz-adv-x="1048" d="M86 268q0 158 121 247t332 89l170 -12v121q0 182 -224 182q-143 0 -309 -78l-10 154q160 78 352 78q180 0 277.5 -76t97.5 -262v-428l8 -283h-170l-12 150h-2l-12 -19q-8 -12 -37 -43t-63 -53.5t-90 -42t-118 -19.5q-158 0 -234.5 83t-76.5 212zM184 1237q0 238 189 238 q51 0 145 -46.5t125 -46.5q70 0 70 93h135q0 -238 -189 -238q-51 0 -146 46t-124 46q-70 0 -70 -92h-135zM274 281q0 -76 47.5 -118t124.5 -42q102 0 182.5 84t80.5 192v66q-59 12 -158 12q-111 0 -194 -46t-83 -148z" />
<glyph unicode="&#xe4;" horiz-adv-x="1048" d="M86 268q0 158 121 247t332 89l170 -12v121q0 182 -224 182q-143 0 -309 -78l-10 154q160 78 352 78q180 0 277.5 -76t97.5 -262v-428l8 -283h-170l-12 150h-2l-12 -19q-8 -12 -37 -43t-63 -53.5t-90 -42t-118 -19.5q-158 0 -234.5 83t-76.5 212zM172 1333q0 49 35 84 t86 35q49 0 84 -35t35 -84q0 -51 -35 -86t-84 -35q-51 0 -86 35t-35 86zM274 281q0 -76 47.5 -118t124.5 -42q102 0 182.5 84t80.5 192v66q-59 12 -158 12q-111 0 -194 -46t-83 -148zM637 1333q0 49 35 84t84 35t83.5 -35t34.5 -84q0 -51 -34.5 -86t-83.5 -35t-84 35t-35 86 z" />
<glyph unicode="&#xe5;" horiz-adv-x="1048" d="M86 268q0 158 121 247t332 89l170 -12v121q0 182 -224 182q-143 0 -309 -78l-10 154q160 78 352 78q180 0 277.5 -76t97.5 -262v-428l8 -283h-170l-12 150h-2l-12 -19q-8 -12 -37 -43t-63 -53.5t-90 -42t-118 -19.5q-158 0 -234.5 83t-76.5 212zM274 281q0 -76 47.5 -118 t124.5 -42q102 0 182.5 84t80.5 192v66q-59 12 -158 12q-111 0 -194 -46t-83 -148zM295 1354q0 86 62.5 146.5t154.5 60.5t154.5 -60.5t62.5 -146.5t-62.5 -145.5t-154.5 -59.5t-154.5 59.5t-62.5 145.5zM408 1354q0 -45 29.5 -76t74.5 -31q43 0 72.5 31t29.5 76t-29.5 75.5 t-72.5 30.5q-45 0 -74.5 -30.5t-29.5 -75.5z" />
<glyph unicode="&#xe6;" horiz-adv-x="1634" d="M86 272q0 162 121 253t330 91l172 -14v113q0 180 -226 180q-141 0 -307 -78l-10 156q166 78 348 78q76 0 136.5 -18.5t91 -44t51 -51.5t26.5 -44l4 -19h2q4 6 11.5 18.5t36 43.5t63.5 53.5t94.5 42t126.5 19.5q389 0 389 -469l-4 -115h-645v-39q0 -129 67.5 -214 t213.5 -85q162 0 307 78l10 -156q-131 -78 -340 -78q-90 0 -160.5 23.5t-108.5 58.5t-63.5 70t-31.5 59l-9 23h-2q-4 -10 -12 -25.5t-41 -55.5t-72 -70.5t-107.5 -55.5t-146.5 -25q-162 0 -238.5 83t-76.5 214zM274 285q0 -78 47.5 -120t124.5 -42q104 0 183.5 85t79.5 198 v67q-66 14 -156 14q-125 0 -202 -52t-77 -150zM895 602h475q0 139 -46 223t-173 84t-191.5 -90t-64.5 -217z" />
<glyph unicode="&#xe7;" horiz-adv-x="854" d="M92 512q0 539 424 539q131 0 246 -62l-10 -155q-125 59 -228 59q-109 0 -175 -84t-66 -236v-124q0 -152 70.5 -235t174.5 -83q117 0 234 64l10 -156q-121 -66 -278 -66q-219 0 -310.5 140.5t-91.5 398.5zM240 -471l4 119q37 -4 53 -4q162 0 162 145q0 37 -15 105h150 q20 -72 20 -134q0 -238 -282 -237q-43 0 -92 6z" />
<glyph unicode="&#xe8;" horiz-adv-x="1015" d="M92 510q0 250 109.5 395.5t337.5 145.5q389 0 389 -469l-4 -115h-645v-39q0 -129 67.5 -214t212.5 -85q160 0 309 78l9 -156q-131 -78 -336 -78q-252 0 -350.5 139.5t-98.5 397.5zM276 602h476q0 139 -46.5 223t-170.5 84q-127 0 -193 -91t-66 -216zM352 1473h189 l139 -310h-158z" />
<glyph unicode="&#xe9;" horiz-adv-x="1015" d="M92 510q0 250 109.5 395.5t337.5 145.5q389 0 389 -469l-4 -115h-645v-39q0 -129 67.5 -214t212.5 -85q160 0 309 78l9 -156q-131 -78 -336 -78q-252 0 -350.5 139.5t-98.5 397.5zM276 602h476q0 139 -46.5 223t-170.5 84q-127 0 -193 -91t-66 -216zM377 1163l139 310 h189l-170 -310h-158z" />
<glyph unicode="&#xea;" horiz-adv-x="1015" d="M92 510q0 250 109.5 395.5t337.5 145.5q389 0 389 -469l-4 -115h-645v-39q0 -129 67.5 -214t212.5 -85q160 0 309 78l9 -156q-131 -78 -336 -78q-252 0 -350.5 139.5t-98.5 397.5zM195 1163l237 310h180l236 -310h-170l-156 191l-155 -191h-172zM276 602h476 q0 139 -46.5 223t-170.5 84q-127 0 -193 -91t-66 -216z" />
<glyph unicode="&#xeb;" horiz-adv-x="1015" d="M92 510q0 250 109.5 395.5t337.5 145.5q389 0 389 -469l-4 -115h-645v-39q0 -129 67.5 -214t212.5 -85q160 0 309 78l9 -156q-131 -78 -336 -78q-252 0 -350.5 139.5t-98.5 397.5zM170 1327q0 51 35 86t84 35t84 -35t35 -86q0 -49 -35 -84t-84 -35t-84 35t-35 84z M276 602h476q0 139 -46.5 223t-170.5 84q-127 0 -193 -91t-66 -216zM633 1327q0 51 34.5 86t84.5 35q51 0 85.5 -35t34.5 -86q0 -49 -34.5 -84t-85.5 -35q-49 0 -84 35t-35 84z" />
<glyph unicode="&#xec;" horiz-adv-x="505" d="M74 1473h188l139 -310h-157zM164 0v1024h184v-1024h-184z" />
<glyph unicode="&#xed;" horiz-adv-x="505" d="M98 1163l140 310h188l-168 -310h-160zM164 0v1024h184v-1024h-184z" />
<glyph unicode="&#xee;" horiz-adv-x="505" d="M-72 1163l238 310h180l236 -310h-172l-154 191l-156 -191h-172zM164 0v1024h184v-1024h-184z" />
<glyph unicode="&#xef;" horiz-adv-x="505" d="M-98 1333q0 49 34.5 84t84 35t84 -35t34.5 -84q0 -51 -34.5 -86t-84 -35t-84 35t-34.5 86zM164 0v1024h184v-1024h-184zM365 1333q0 49 34.5 84t83.5 35t84 -35t35 -84q0 -51 -35 -86t-84 -35t-83.5 35t-34.5 86z" />
<glyph unicode="&#xf0;" horiz-adv-x="1087" d="M109 461q0 209 98 330.5t289 121.5q63 0 118.5 -16t88 -38.5t56 -45t32.5 -39.5l10 -16h2v47q0 160 -45 282l-234 -118v141l166 84q-88 123 -227 123q-141 0 -268 -55l-9 155q121 51 273 51q258 0 391 -194l184 94v-141l-125 -64q78 -190 78 -516q0 -344 -107.5 -509 t-336.5 -165q-217 0 -325.5 130.5t-108.5 357.5zM295 446.5q0 -149.5 62.5 -234.5t183.5 -85q131 0 196.5 110.5t65.5 249.5q0 117 -78 195t-190 78q-115 0 -177.5 -82t-62.5 -231.5z" />
<glyph unicode="&#xf1;" horiz-adv-x="1136" d="M156 0v1024h178v-141h2q4 6 13 17t41 41t67 51.5t90 40t115 18.5q328 0 327 -344v-707h-184v649q0 104 -43 169t-162 65q-102 0 -181 -72t-79 -162v-649h-184zM256 1237q0 238 186 238q51 0 146.5 -46.5t126.5 -46.5q68 0 67 93h136q0 -238 -189 -238q-51 0 -145.5 46 t-124.5 46q-70 0 -70 -92h-133z" />
<glyph unicode="&#xf2;" horiz-adv-x="1077" d="M98 508q0 543 445 543q233 0 334.5 -137.5t101.5 -397.5q0 -541 -444 -541q-233 0 -335 136.5t-102 396.5zM289 436q0 -145 64.5 -228t183 -83t185 85t66.5 232v146q0 145 -64.5 228t-183 83t-185 -85t-66.5 -232v-146zM352 1473h189l139 -310h-158z" />
<glyph unicode="&#xf3;" horiz-adv-x="1077" d="M98 508q0 543 445 543q233 0 334.5 -137.5t101.5 -397.5q0 -541 -444 -541q-233 0 -335 136.5t-102 396.5zM289 436q0 -145 64.5 -228t183 -83t185 85t66.5 232v146q0 145 -64.5 228t-183 83t-185 -85t-66.5 -232v-146zM381 1163l139 310h189l-168 -310h-160z" />
<glyph unicode="&#xf4;" horiz-adv-x="1077" d="M98 508q0 543 445 543q233 0 334.5 -137.5t101.5 -397.5q0 -541 -444 -541q-233 0 -335 136.5t-102 396.5zM213 1163l236 310h180l237 -310h-172l-155 191l-156 -191h-170zM289 436q0 -145 64.5 -228t183 -83t185 85t66.5 232v146q0 145 -64.5 228t-183 83t-185 -85 t-66.5 -232v-146z" />
<glyph unicode="&#xf5;" horiz-adv-x="1077" d="M98 508q0 543 445 543q233 0 334.5 -137.5t101.5 -397.5q0 -541 -444 -541q-233 0 -335 136.5t-102 396.5zM205 1237q0 238 188 238q51 0 146.5 -46.5t124.5 -46.5q70 0 69 93h135q0 -238 -188 -238q-51 0 -145.5 46t-124.5 46q-70 0 -70 -92h-135zM289 436 q0 -145 64.5 -228t183 -83t185 85t66.5 232v146q0 145 -64.5 228t-183 83t-185 -85t-66.5 -232v-146z" />
<glyph unicode="&#xf6;" horiz-adv-x="1077" d="M98 508q0 543 445 543q233 0 334.5 -137.5t101.5 -397.5q0 -541 -444 -541q-233 0 -335 136.5t-102 396.5zM184 1333q0 49 35 84t84 35t84 -35t35 -84q0 -51 -35 -86t-84 -35t-84 35t-35 86zM289 436q0 -145 64.5 -228t183 -83t185 85t66.5 232v146q0 145 -64.5 228 t-183 83t-185 -85t-66.5 -232v-146zM647 1333q0 49 35 84t84 35t84 -35t35 -84q0 -51 -35 -86t-84 -35t-84 35t-35 86z" />
<glyph unicode="&#xf7;" horiz-adv-x="1249" d="M133 582v147h985v-147h-985zM516 233.5q0 45.5 32 77t77 31.5t76.5 -31.5t31.5 -77t-31.5 -77t-76.5 -31.5t-77 31.5t-32 77zM516 1077q0 45 32 77t77 32t76.5 -32t31.5 -77t-31.5 -76.5t-76.5 -31.5t-77 31.5t-32 76.5z" />
<glyph unicode="&#xf8;" horiz-adv-x="1077" d="M98 508q0 543 445 543q39 0 100 -9l64 207h112l-71 -237q231 -98 231 -496q0 -541 -444 -541q-61 0 -103 9l-65 -211h-109l72 239q-232 103 -232 496zM281 436q0 -184 102 -262l225 725q-41 8 -67 8q-123 0 -191.5 -88t-68.5 -237v-146zM467 127q27 -8 70 -8 q123 0 191.5 87t68.5 236v146q0 186 -103 262z" />
<glyph unicode="&#xf9;" horiz-adv-x="1144" d="M152 317v707h184v-649q0 -233 199 -234q96 0 172.5 72t76.5 164v647h185v-772l6 -252h-168l-16 141h-3q-4 -6 -13 -17t-39.5 -41t-65.5 -51.5t-89.5 -40t-109.5 -18.5q-319 0 -319 344zM369 1473h190l139 -310h-159z" />
<glyph unicode="&#xfa;" horiz-adv-x="1144" d="M152 317v707h184v-649q0 -233 199 -234q96 0 172.5 72t76.5 164v647h185v-772l6 -252h-168l-16 141h-3q-4 -6 -13 -17t-39.5 -41t-65.5 -51.5t-89.5 -40t-109.5 -18.5q-319 0 -319 344zM434 1163l139 310h189l-170 -310h-158z" />
<glyph unicode="&#xfb;" horiz-adv-x="1144" d="M152 317v707h184v-649q0 -233 199 -234q96 0 172.5 72t76.5 164v647h185v-772l6 -252h-168l-16 141h-3q-4 -6 -13 -17t-39.5 -41t-65.5 -51.5t-89.5 -40t-109.5 -18.5q-319 0 -319 344zM240 1163l235 310h180l238 -310h-172l-156 191l-153 -191h-172z" />
<glyph unicode="&#xfc;" horiz-adv-x="1144" d="M152 317v707h184v-649q0 -233 199 -234q96 0 172.5 72t76.5 164v647h185v-772l6 -252h-168l-16 141h-3q-4 -6 -13 -17t-39.5 -41t-65.5 -51.5t-89.5 -40t-109.5 -18.5q-319 0 -319 344zM219 1333q0 49 35 84t84 35t85 -35t36 -84q0 -51 -36 -86t-85 -35t-84 35t-35 86z M684 1333q0 49 35 84t84 35t84 -35t35 -84q0 -51 -35 -86t-84 -35t-84 35t-35 86z" />
<glyph unicode="&#xfd;" horiz-adv-x="1060" d="M45 1024h195l295 -838h2l299 838h186q-291 -819 -567 -1444h-203q47 96 95 200.5t71 162.5l24 57zM381 1163l139 310h189l-168 -310h-160z" />
<glyph unicode="&#xfe;" horiz-adv-x="1118" d="M147 -420v1864h185v-551h2q37 47 68.5 76.5t95 55.5t145.5 26q377 0 377 -535q0 -115 -20.5 -209t-65.5 -171t-124 -120t-187 -43q-197 0 -289 154h-2v-547h-185zM332 424q0 -125 74.5 -209t171.5 -84q125 0 188 90t63 234v127q0 143 -66.5 227t-176.5 84 q-104 0 -179 -84t-75 -197v-188z" />
<glyph unicode="&#xff;" horiz-adv-x="1060" d="M45 1024h195l295 -838h2l299 838h186q-291 -819 -567 -1444h-203q47 96 95 200.5t71 162.5l24 57zM178 1333q0 49 35 84t84 35t85 -35t36 -84q0 -51 -36 -86t-85 -35t-84 35t-35 86zM643 1333q0 49 35 84t84 35t84 -35t35 -84q0 -51 -35 -86t-84 -35t-84 35t-35 86z" />
<glyph unicode="&#x152;" horiz-adv-x="1771" d="M90 684q0 166 22.5 287t78 220t158 150.5t253.5 51.5q72 0 131.5 -18.5t94 -45t59 -52.5t35.5 -44l8 -19h2v152h725v-160l-541 -2v-413h496v-162h-496v-467l541 -2v-160h-725v154h-2q-4 -8 -11.5 -19.5t-36 -43.5t-64.5 -55.5t-99.5 -43t-136.5 -19.5q-147 0 -246.5 51.5 t-152 151.5t-73 220t-20.5 288zM285 582q0 -442 319 -443q156 0 240 99.5t84 248.5v392q0 143 -82 245.5t-236 102.5q-162 0 -243.5 -114t-81.5 -329v-202z" />
<glyph unicode="&#x153;" horiz-adv-x="1685" d="M98 508q0 543 437 543q250 0 331 -209h2q39 90 127 149.5t215 59.5q389 0 389 -469l-4 -115h-645v-39q0 -129 67.5 -214t213.5 -85q162 0 307 78l10 -156q-131 -78 -340 -78q-266 0 -348 207h-2q-88 -207 -332 -207q-227 0 -327.5 137.5t-100.5 397.5zM289 436 q0 -145 61.5 -228t176 -83t180 86t65.5 231v146q0 145 -62.5 228t-177 83t-179 -86t-64.5 -231v-146zM948 602h475q0 139 -46 223t-173 84q-125 0 -190.5 -91t-65.5 -216z" />
<glyph unicode="&#x178;" horiz-adv-x="1155" d="M29 1366h211l342 -721h2l342 721h200l-454 -889v-477h-189v477zM250 1624q0 49 36 84t85 35t83.5 -35t34.5 -84t-34.5 -85t-83.5 -36t-85 36t-36 85zM715 1624q0 49 34.5 84t84 35t84 -35t34.5 -84t-34.5 -85t-84 -36t-84 36t-34.5 85z" />
<glyph unicode="&#x2c6;" horiz-adv-x="753" d="M51 1143l236 309h180l238 -309h-173l-155 190l-154 -190h-172z" />
<glyph unicode="&#x2dc;" horiz-adv-x="753" d="M45 1217q0 238 188 237q51 0 146.5 -46t124.5 -46q70 0 69 92h136q0 -238 -189 -237q-51 0 -145 46t-125 46q-70 0 -70 -92h-135z" />
<glyph unicode="&#x2000;" horiz-adv-x="933" />
<glyph unicode="&#x2001;" horiz-adv-x="1867" />
<glyph unicode="&#x2002;" horiz-adv-x="933" />
<glyph unicode="&#x2003;" horiz-adv-x="1867" />
<glyph unicode="&#x2004;" horiz-adv-x="622" />
<glyph unicode="&#x2005;" horiz-adv-x="466" />
<glyph unicode="&#x2006;" horiz-adv-x="311" />
<glyph unicode="&#x2007;" horiz-adv-x="311" />
<glyph unicode="&#x2008;" horiz-adv-x="233" />
<glyph unicode="&#x2009;" horiz-adv-x="372" />
<glyph unicode="&#x200a;" horiz-adv-x="102" />
<glyph unicode="&#x2010;" horiz-adv-x="727" d="M94 498v153h539v-153h-539z" />
<glyph unicode="&#x2011;" horiz-adv-x="727" d="M94 498v153h539v-153h-539z" />
<glyph unicode="&#x2012;" horiz-adv-x="727" d="M94 498v153h539v-153h-539z" />
<glyph unicode="&#x2013;" horiz-adv-x="1122" d="M49 496v157h1024v-157h-1024z" />
<glyph unicode="&#x2014;" horiz-adv-x="2146" d="M49 496v157h2048v-157h-2048z" />
<glyph unicode="&#x2018;" horiz-adv-x="514" d="M94 868l176 498h150l-129 -498h-197z" />
<glyph unicode="&#x2019;" horiz-adv-x="514" d="M94 868l129 498h197l-174 -498h-152z" />
<glyph unicode="&#x201a;" horiz-adv-x="514" d="M74 -256l129 498h196l-174 -498h-151z" />
<glyph unicode="&#x201c;" horiz-adv-x="962" d="M94 868l176 498h150l-129 -498h-197zM543 868l174 498h151l-129 -498h-196z" />
<glyph unicode="&#x201d;" horiz-adv-x="962" d="M94 868l129 498h197l-174 -498h-152zM543 868l129 498h196l-176 -498h-149z" />
<glyph unicode="&#x201e;" horiz-adv-x="978" d="M74 -256l129 498h196l-174 -498h-151zM522 -256l129 498h197l-176 -498h-150z" />
<glyph unicode="&#x2022;" horiz-adv-x="843" d="M115 696q0 131 88 218t219 87q133 0 220 -86t87 -219t-87 -218t-218 -85t-220 86t-89 217z" />
<glyph unicode="&#x2026;" horiz-adv-x="1683" d="M143 110.5q0 57.5 40 97.5t97.5 40t97.5 -40t40 -97.5t-40 -97.5t-97.5 -40t-97.5 40t-40 97.5zM702 110.5q0 57.5 40 97.5t97.5 40t97.5 -40t40 -97.5t-40 -97.5t-97.5 -40t-97.5 40t-40 97.5zM1262 110.5q0 57.5 39.5 97.5t97 40t97.5 -40t40 -97.5t-40 -97.5 t-97.5 -40t-97 40t-39.5 97.5z" />
<glyph unicode="&#x202f;" horiz-adv-x="372" />
<glyph unicode="&#x2039;" horiz-adv-x="686" d="M94 551l305 473h193l-305 -473l305 -473h-193z" />
<glyph unicode="&#x203a;" horiz-adv-x="686" d="M94 78l305 473l-305 473h193l305 -473l-305 -473h-193z" />
<glyph unicode="&#x205f;" horiz-adv-x="466" />
<glyph unicode="&#x20ac;" d="M102 428l11 139h163q-4 78 -4 115q0 29 4 119h-174l11 137h180q78 455 469 455q117 0 221 -35l-10 -164q-94 37 -199 37q-119 0 -198.5 -77t-104.5 -216h426l-8 -137h-432v-234h440l-8 -139h-420q23 -147 98.5 -220t190.5 -73q119 0 237 60v-168q-117 -53 -282 -54 q-360 0 -424 455h-187z" />
<glyph unicode="&#x2122;" horiz-adv-x="1449" d="M80 1257v109h471v-109h-172v-524h-127v524h-172zM621 733l38 633h123l176 -305h3l172 305h120l41 -633h-112l-25 467l-199 -354l-200 354h-2l-23 -467h-112z" />
<glyph unicode="&#xe000;" horiz-adv-x="1025" d="M0 1025h1025v-1025h-1025v1025z" />
<glyph unicode="&#xfb01;" horiz-adv-x="1220" d="M12 870v154h238v135q0 147 76.5 228t222.5 81q31 0 65.5 -3t53.5 -7l18 -4l-10 -149q-45 10 -98 10q-143 0 -144 -174v-117h273v-154h-273v-870h-184v870h-238zM846 1315q0 51 37 88t88 37q53 0 90 -37t37 -88t-37 -88t-90 -37q-51 0 -88 37t-37 88zM881 0v1024h182 v-1024h-182z" />
<glyph unicode="&#xfb02;" horiz-adv-x="1210" d="M12 870v154h238v135q0 147 76.5 228t222.5 81q31 0 65.5 -3t53.5 -7l18 -4l-10 -149q-45 10 -98 10q-143 0 -144 -174v-117h273v-154h-273v-870h-184v870h-238zM872 0v1444h185v-1444h-185z" />
<glyph unicode="&#xfb03;" horiz-adv-x="1947" d="M1573 1315q0 53 37 89t88 36t88 -36t37 -89t-37 -89t-88 -36t-88 36t-37 89zM1606 0v1024h184v-1024h-184zM733 870v154h238v135q0 147 76.5 228t222.5 81q31 0 65.5 -3t53.5 -7l18 -4l-10 -149q-45 10 -98 10q-143 0 -144 -174v-117h273v-154h-273v-870h-184v870h-238z M12 870v154h238v135q0 147 76.5 228t222.5 81q31 0 65.5 -3t53.5 -7l18 -4l-10 -149q-45 10 -98 10q-143 0 -144 -174v-117h273v-154h-273v-870h-184v870h-238z" />
<glyph unicode="&#xfb04;" horiz-adv-x="1939" d="M1602 0v1444h184v-1444h-184zM733 870v154h238v135q0 147 76.5 228t222.5 81q31 0 65.5 -3t53.5 -7l18 -4l-10 -149q-45 10 -98 10q-143 0 -144 -174v-117h273v-154h-273v-870h-184v870h-238zM12 870v154h238v135q0 147 76.5 228t222.5 81q31 0 65.5 -3t53.5 -7l18 -4 l-10 -149q-45 10 -98 10q-143 0 -144 -174v-117h273v-154h-273v-870h-184v870h-238z" />
</font>
</defs>
</svg>
